<?xml version="1.0" encoding="UTF-8"?> <svg xmlns="http://www.w3.org/2000/svg" width="1500.002" height="308.85" viewBox="0 0 1500.002 308.85"><g id="Layer_x0020_1" transform="translate(0.046)"><g id="_1604369411136" transform="translate(-0.046)"><g id="Group_1" data-name="Group 1"><path id="Path_1" data-name="Path 1" d="M80.218,976.192l-8.391-4.351c-57.961-24.086-24.707-81.27-5.516-118.176l63.555-126.178c-40.557-4.2-64.488,3.108-89.817,23.542-41.567,33.487-53.3,96.421-23.387,144.437,4.506,7.148,10.567,11.266,10.877,18.8.7,20.512-3.186,28.981,10.1,44.209C45.954,968.034,61.959,975.57,80.218,976.192Z" transform="translate(0.046 -667.341)" fill="#01a4ef" fill-rule="evenodd"></path><path id="Path_2" data-name="Path 2" d="M1556.722,1193c-13.985,32.865-52.056,100.616-71.636,140.164-10.411,21.056-9.013,40.169,20.589,35.9C1582.906,1357.871,1609.011,1239.229,1556.722,1193Z" transform="translate(-1364.265 -1097.736)" fill="#f1521b" fill-rule="evenodd"></path><ellipse id="Ellipse_1" data-name="Ellipse 1" cx="40.946" cy="40.635" rx="40.946" ry="40.635" transform="translate(141.488)" fill="#80cd29"></ellipse></g><g id="Group_2" data-name="Group 2" transform="translate(291.515 49.691)"><path id="Path_3" data-name="Path 3" d="M3547.384,880.554A15.8,15.8,0,0,1,3532,865.092V755.541a15.8,15.8,0,0,1,15.384-15.461h7.07a15.8,15.8,0,0,1,15.384,15.461V865.092a15.8,15.8,0,0,1-15.384,15.462Zm0-170.154a14.7,14.7,0,0,1-10.8-4.584,14.875,14.875,0,0,1-4.584-10.8v-1.632A15.659,15.659,0,0,1,3547.384,678h7.07a15.659,15.659,0,0,1,15.384,15.384v1.632a14.875,14.875,0,0,1-4.584,10.8,14.7,14.7,0,0,1-10.8,4.584Z" transform="translate(-3530.679 -673.727)" fill="#5b5b5b"></path><path id="_1" data-name="1" d="M4618.384,1586.116A15.8,15.8,0,0,1,4603,1570.655V1461.1a15.8,15.8,0,0,1,15.384-15.462h3.5a15.2,15.2,0,0,1,10.955,4.506,15.72,15.72,0,0,1,4.662,10.955v1.865c0,.155.155.233.311.233a1.034,1.034,0,0,0,.544-.233c12.2-13.364,26.572-19.968,42.888-19.968,16.394,0,28.359,4.584,35.818,13.908q11.188,13.869,11.188,46.307v67.44a15.8,15.8,0,0,1-15.384,15.462h-4.583a14.2,14.2,0,0,1-10.645-4.662,14.674,14.674,0,0,1-4.507-10.8v-64.8c0-13.441-1.709-22.687-5.283-27.66-3.5-4.895-9.712-7.381-18.725-7.381-7.381,0-14.218,3.108-20.512,9.4s-9.479,13.053-9.479,20.279v70.159a14.457,14.457,0,0,1-4.584,10.8,14.656,14.656,0,0,1-10.8,4.662Z" transform="translate(-4518.467 -1379.289)" fill="#5b5b5b"></path><path id="_2" data-name="2" d="M6533.975,964.463a12.559,12.559,0,0,1-9.246-3.885,13.158,13.158,0,0,1-3.729-9.324,12.866,12.866,0,0,1,12.975-12.975h12.9a2.164,2.164,0,0,0,2.486-2.409V902.384a15.032,15.032,0,0,1,4.429-10.8A14.124,14.124,0,0,1,6564.432,887h5.438a14.7,14.7,0,0,1,10.8,4.584,14.877,14.877,0,0,1,4.584,10.8v33.487a2.109,2.109,0,0,0,2.409,2.409h30.768a12.664,12.664,0,0,1,9.324,3.807,12.06,12.06,0,0,1,3.962,9.168,13.4,13.4,0,0,1-13.286,13.208h-30.768c-1.632,0-2.409.7-2.409,2.176v54.543c0,11.654,1.243,19.269,3.729,22.687,2.564,3.419,7.77,5.128,15.695,5.128a71.081,71.081,0,0,0,9.712-.544,13.369,13.369,0,0,1,9.479,2.409,9.469,9.469,0,0,1,4.04,8.08,16.7,16.7,0,0,1-3.885,10.722,13.819,13.819,0,0,1-9.634,5.206c-7.925.777-13.83,1.088-17.792,1.088-17.481,0-29.68-3.729-36.75-11.188q-10.489-11.188-10.489-40.091V966.638c0-1.476-.855-2.176-2.486-2.176Z" transform="translate(-6287.445 -866.488)" fill="#5b5b5b"></path><path id="_3" data-name="3" d="M8335.663,1468.1q-13.752,0-21.211,7.692-7.342,7.692-9.324,24.707a1.966,1.966,0,0,0,2.176,2.175h52.911a1.933,1.933,0,0,0,2.176-2.175Q8361.342,1468.1,8335.663,1468.1Zm6.76,120.662q-35.43,0-54.387-18.492c-12.743-12.276-19.036-30.457-19.036-54.387q0-35.662,17.016-54.232c11.343-12.432,27.659-18.647,49.1-18.647,39.936,0,60.525,22.687,61.535,67.984a12.8,12.8,0,0,1-4.584,10.8,16.1,16.1,0,0,1-11.344,4.351h-73.655c-1.633,0-2.253.777-1.943,2.409,1.321,12.121,5.283,20.823,12.043,26.339s16.627,8.236,29.6,8.236a102.281,102.281,0,0,0,26.961-4.04,9.878,9.878,0,0,1,9.013,1.632,9.33,9.33,0,0,1,4.2,8.08,17.248,17.248,0,0,1-3.651,10.955,15.447,15.447,0,0,1-9.557,5.827A153.4,153.4,0,0,1,8342.423,1588.758Z" transform="translate(-7899.633 -1379.289)" fill="#5b5b5b"></path><path id="_4" data-name="4" d="M10407.383,880.554A15.8,15.8,0,0,1,10392,865.092V693.384A15.659,15.659,0,0,1,10407.383,678h6.994a15.659,15.659,0,0,1,15.383,15.384V865.092a15.8,15.8,0,0,1-15.383,15.462Z" transform="translate(-9857.684 -673.727)" fill="#5b5b5b"></path><path id="_5" data-name="5" d="M11512.384,880.554A15.8,15.8,0,0,1,11497,865.092V693.384A15.659,15.659,0,0,1,11512.384,678h6.993a15.8,15.8,0,0,1,15.461,15.384V865.092a15.939,15.939,0,0,1-15.461,15.462Z" transform="translate(-10876.83 -673.727)" fill="#5b5b5b"></path><path id="_6" data-name="6" d="M12617.384,880.554A15.8,15.8,0,0,1,12602,865.092V755.541a15.8,15.8,0,0,1,15.384-15.461h7.07a15.8,15.8,0,0,1,15.384,15.461V865.092a15.8,15.8,0,0,1-15.384,15.462Zm0-170.154a14.7,14.7,0,0,1-10.8-4.584,14.878,14.878,0,0,1-4.583-10.8v-1.632A15.657,15.657,0,0,1,12617.384,678h7.07a15.659,15.659,0,0,1,15.384,15.384v1.632a14.875,14.875,0,0,1-4.584,10.8,14.7,14.7,0,0,1-10.8,4.584Z" transform="translate(-11895.976 -673.727)" fill="#5b5b5b"></path><path id="_7" data-name="7" d="M13687.383,1586.116a15.8,15.8,0,0,1-15.384-15.462V1461.1a15.8,15.8,0,0,1,15.384-15.462h3.574a14.9,14.9,0,0,1,10.877,4.506,15.468,15.468,0,0,1,4.74,10.955v1.865c0,.155.078.233.311.233a1.031,1.031,0,0,0,.544-.233c12.2-13.364,26.494-19.968,42.889-19.968s28.281,4.584,35.817,13.908q11.188,13.869,11.188,46.307v67.44a15.8,15.8,0,0,1-15.384,15.462h-4.584a14.368,14.368,0,0,1-10.723-4.662,14.906,14.906,0,0,1-4.429-10.8v-64.8c0-13.441-1.786-22.687-5.283-27.66-3.5-4.895-9.712-7.381-18.725-7.381-7.381,0-14.219,3.108-20.512,9.4s-9.479,13.053-9.479,20.279v70.159a15.8,15.8,0,0,1-15.384,15.462Z" transform="translate(-12882.84 -1379.289)" fill="#5b5b5b"></path><path id="_8" data-name="8" d="M15691.741,1468.1q-13.753,0-21.212,7.692t-9.323,24.707a1.933,1.933,0,0,0,2.176,2.175h52.91a1.966,1.966,0,0,0,2.176-2.175C15717.691,1478.9,15708.834,1468.1,15691.741,1468.1Zm6.76,120.662c-23.62,0-41.724-6.138-54.466-18.492-12.664-12.276-19.035-30.457-19.035-54.387q0-35.662,17.015-54.232Q15659.03,1443,15691.2,1443q59.9,0,61.535,67.984a13.016,13.016,0,0,1-4.584,10.8,16.228,16.228,0,0,1-11.343,4.351h-73.733c-1.555,0-2.254.777-1.865,2.409,1.243,12.121,5.283,20.823,12.043,26.339s16.55,8.236,29.524,8.236a103.271,103.271,0,0,0,27.038-4.04,9.961,9.961,0,0,1,9.014,1.632,9.333,9.333,0,0,1,4.2,8.08,17.71,17.71,0,0,1-3.652,10.955,15.447,15.447,0,0,1-9.557,5.827A153.4,153.4,0,0,1,15698.5,1588.758Z" transform="translate(-14684.101 -1379.289)" fill="#5b5b5b"></path><path id="_9" data-name="9" d="M17618.08,1580.957l60.992-77.152c0-.233.076-.311.311-.311,0-.155-.078-.233-.311-.233H17622.9a12.3,12.3,0,0,1-9.168-3.963,12.9,12.9,0,0,1-3.729-9.323,12.865,12.865,0,0,1,12.9-12.975h87.486a13,13,0,0,1,12.977,12.975,37.922,37.922,0,0,1-8.082,23.542l-60.99,77.152a.285.285,0,0,1-.311.311c0,.155.076.233.311.233h56.1a12.057,12.057,0,0,1,9.168,3.963,12.661,12.661,0,0,1,3.809,9.323,13,13,0,0,1-12.977,12.975H17622.9a12.865,12.865,0,0,1-12.9-12.975A37.622,37.622,0,0,1,17618.08,1580.957Z" transform="translate(-16514.873 -1410.647)" fill="#5b5b5b"></path><ellipse id="Ellipse_2" data-name="Ellipse 2" cx="19.813" cy="19.113" rx="19.813" ry="19.113" fill="#5b5b5b"></ellipse><ellipse id="Ellipse_3" data-name="Ellipse 3" cx="19.813" cy="19.113" rx="19.813" ry="19.113" transform="translate(704.781 0.155)" fill="#5b5b5b"></ellipse></g></g></g></svg> 